<?xml version="1.0" encoding="UTF-8"?>
<svg id="Capa_2" data-name="Capa 2" xmlns="http://www.w3.org/2000/svg" xmlns:xlink="http://www.w3.org/1999/xlink" viewBox="0 0 179 114">
  <defs>
    <style>
      .cls-1 {
        fill: #999;
      }

      .cls-1, .cls-2, .cls-3, .cls-4, .cls-5, .cls-6 {
        stroke-width: 0px;
      }

      .cls-2 {
        filter: url(#drop-shadow-2);
      }

      .cls-2, .cls-3, .cls-4, .cls-6 {
        fill: #fff;
      }

      .cls-3 {
        filter: url(#drop-shadow-1);
      }

      .cls-4 {
        filter: url(#drop-shadow-4);
      }

      .cls-5 {
        fill: #b5b5b5;
      }

      .cls-6 {
        filter: url(#drop-shadow-3);
      }
    </style>
    <filter id="drop-shadow-1" filterUnits="userSpaceOnUse">
      <feOffset dx="1" dy="1"/>
      <feGaussianBlur result="blur" stdDeviation="1"/>
      <feFlood flood-color="#000" flood-opacity=".2"/>
      <feComposite in2="blur" operator="in"/>
      <feComposite in="SourceGraphic"/>
    </filter>
    <filter id="drop-shadow-2" filterUnits="userSpaceOnUse">
      <feOffset dx="1" dy="1"/>
      <feGaussianBlur result="blur-2" stdDeviation="1"/>
      <feFlood flood-color="#000" flood-opacity=".2"/>
      <feComposite in2="blur-2" operator="in"/>
      <feComposite in="SourceGraphic"/>
    </filter>
    <filter id="drop-shadow-3" filterUnits="userSpaceOnUse">
      <feOffset dx="1" dy="1"/>
      <feGaussianBlur result="blur-3" stdDeviation="1"/>
      <feFlood flood-color="#000" flood-opacity=".2"/>
      <feComposite in2="blur-3" operator="in"/>
      <feComposite in="SourceGraphic"/>
    </filter>
    <filter id="drop-shadow-4" filterUnits="userSpaceOnUse">
      <feOffset dx="1" dy="1"/>
      <feGaussianBlur result="blur-4" stdDeviation="1"/>
      <feFlood flood-color="#000" flood-opacity=".2"/>
      <feComposite in2="blur-4" operator="in"/>
      <feComposite in="SourceGraphic"/>
    </filter>
  </defs>
  <g id="Capa_2-2" data-name="Capa 2">
    <g>
      <g>
        <g>
          <rect class="cls-1" x="64" width="52" height="52" rx="8.64" ry="8.64"/>
          <rect class="cls-5" x="67" y="3" width="46" height="46" rx="8.64" ry="8.64"/>
        </g>
        <polygon class="cls-3" points="95.98 20.36 90 10 84.02 20.36 88.5 20.36 88.5 42 91.5 42 91.5 20.36 95.98 20.36"/>
      </g>
      <g>
        <g>
          <rect class="cls-1" x="64" y="62" width="52" height="52" rx="8.64" ry="8.64" transform="translate(180 176) rotate(180)"/>
          <rect class="cls-5" x="67" y="65" width="46" height="46" rx="8.64" ry="8.64" transform="translate(180 176) rotate(180)"/>
        </g>
        <polygon class="cls-2" points="84.02 93.64 90 104 95.98 93.64 91.5 93.64 91.5 72 88.5 72 88.5 93.64 84.02 93.64"/>
      </g>
      <g>
        <g>
          <rect class="cls-1" x="127" y="62" width="52" height="52" rx="8.64" ry="8.64" transform="translate(241 -65) rotate(90)"/>
          <rect class="cls-5" x="130" y="65" width="46" height="46" rx="8.64" ry="8.64" transform="translate(241 -65) rotate(90)"/>
        </g>
        <polygon class="cls-6" points="158.64 93.98 169 88 158.64 82.02 158.64 86.5 137 86.5 137 89.5 158.64 89.5 158.64 93.98"/>
      </g>
      <g>
        <g>
          <rect class="cls-1" x="0" y="62" width="52" height="52" rx="8.64" ry="8.64" transform="translate(114 62) rotate(90)"/>
          <rect class="cls-5" x="3" y="65" width="46" height="46" rx="8.64" ry="8.64" transform="translate(114 62) rotate(90)"/>
        </g>
        <polygon class="cls-4" points="20.36 93.98 10 88 20.36 82.02 20.36 86.5 42 86.5 42 89.5 20.36 89.5 20.36 93.98"/>
      </g>
    </g>
  </g>
</svg>